<?xml version="1.0" encoding="UTF-8" standalone="no"?>
<!DOCTYPE svg PUBLIC "-//W3C//DTD SVG 1.1//EN"
 "http://www.w3.org/Graphics/SVG/1.1/DTD/svg11.dtd">
<!-- Generated by graphviz version 2.43.0 (0)
 -->
<!-- Title: parameters Pages: 1 -->
<svg width="684pt" height="317pt"
 viewBox="0.00 0.00 684.00 317.00" xmlns="http://www.w3.org/2000/svg" xmlns:xlink="http://www.w3.org/1999/xlink">
<g id="graph0" class="graph" transform="scale(1 1) rotate(0) translate(4 313)">
<title>parameters</title>
<polygon fill="white" stroke="transparent" points="-4,4 -4,-313 680,-313 680,4 -4,4"/>
<text text-anchor="middle" x="338" y="-292.2" font-family="Arial" font-size="16.00">Model Parameters Distribution (14.8M total)</text>
<g id="clust1" class="cluster">
<title>cluster_layer</title>
<polygon fill="#f5f5f5" stroke="black" points="8,-8 8,-118 668,-118 668,-8 8,-8"/>
<text text-anchor="middle" x="338" y="-101.2" font-family="Arial" font-size="16.00">Per Transformer Block (1.84M params)</text>
</g>
<!-- total -->
<g id="node1" class="node">
<title>total</title>
<path fill="#ffffcc" stroke="black" stroke-width="3" d="M362,-275.5C362,-275.5 252,-275.5 252,-275.5 246,-275.5 240,-269.5 240,-263.5 240,-263.5 240,-234.5 240,-234.5 240,-228.5 246,-222.5 252,-222.5 252,-222.5 362,-222.5 362,-222.5 368,-222.5 374,-228.5 374,-234.5 374,-234.5 374,-263.5 374,-263.5 374,-269.5 368,-275.5 362,-275.5"/>
<text text-anchor="middle" x="307" y="-260.3" font-family="Arial" font-size="14.00">Vortex&#45;Codec</text>
<text text-anchor="middle" x="307" y="-245.3" font-family="Arial" font-size="14.00">14,971,136 params</text>
<text text-anchor="middle" x="307" y="-230.3" font-family="Arial" font-size="14.00">(~14.8M)</text>
</g>
<!-- embedding -->
<g id="node2" class="node">
<title>embedding</title>
<path fill="#ffe1e1" stroke="black" d="M204,-179C204,-179 112,-179 112,-179 106,-179 100,-173 100,-167 100,-167 100,-138 100,-138 100,-132 106,-126 112,-126 112,-126 204,-126 204,-126 210,-126 216,-132 216,-138 216,-138 216,-167 216,-167 216,-173 210,-179 204,-179"/>
<text text-anchor="middle" x="158" y="-163.8" font-family="Arial" font-size="14.00">Byte Embedding</text>
<text text-anchor="middle" x="158" y="-148.8" font-family="Arial" font-size="14.00">131,072 params</text>
<text text-anchor="middle" x="158" y="-133.8" font-family="Arial" font-size="14.00">(0.9%)</text>
</g>
<!-- total&#45;&gt;embedding -->
<g id="edge1" class="edge">
<title>total&#45;&gt;embedding</title>
<path fill="none" stroke="black" d="M266.68,-222.43C248.29,-210.77 226.36,-196.86 207.03,-184.6"/>
<polygon fill="black" stroke="black" points="208.67,-181.49 198.35,-179.09 204.92,-187.41 208.67,-181.49"/>
</g>
<!-- transformers -->
<g id="node3" class="node">
<title>transformers</title>
<path fill="#e1ffe1" stroke="black" d="M368,-179C368,-179 246,-179 246,-179 240,-179 234,-173 234,-167 234,-167 234,-138 234,-138 234,-132 240,-126 246,-126 246,-126 368,-126 368,-126 374,-126 380,-132 380,-138 380,-138 380,-167 380,-167 380,-173 374,-179 368,-179"/>
<text text-anchor="middle" x="307" y="-163.8" font-family="Arial" font-size="14.00">8 Transformer Blocks</text>
<text text-anchor="middle" x="307" y="-148.8" font-family="Arial" font-size="14.00">14,708,736 params</text>
<text text-anchor="middle" x="307" y="-133.8" font-family="Arial" font-size="14.00">(98.2%)</text>
</g>
<!-- total&#45;&gt;transformers -->
<g id="edge2" class="edge">
<title>total&#45;&gt;transformers</title>
<path fill="none" stroke="black" d="M307,-222.18C307,-212.07 307,-200.31 307,-189.4"/>
<polygon fill="black" stroke="black" points="310.5,-189.29 307,-179.29 303.5,-189.29 310.5,-189.29"/>
</g>
<!-- output_proj -->
<g id="node4" class="node">
<title>output_proj</title>
<path fill="#e1e1ff" stroke="black" d="M508,-179C508,-179 410,-179 410,-179 404,-179 398,-173 398,-167 398,-167 398,-138 398,-138 398,-132 404,-126 410,-126 410,-126 508,-126 508,-126 514,-126 520,-132 520,-138 520,-138 520,-167 520,-167 520,-173 514,-179 508,-179"/>
<text text-anchor="middle" x="459" y="-163.8" font-family="Arial" font-size="14.00">Output Projection</text>
<text text-anchor="middle" x="459" y="-148.8" font-family="Arial" font-size="14.00">131,328 params</text>
<text text-anchor="middle" x="459" y="-133.8" font-family="Arial" font-size="14.00">(0.9%)</text>
</g>
<!-- total&#45;&gt;output_proj -->
<g id="edge3" class="edge">
<title>total&#45;&gt;output_proj</title>
<path fill="none" stroke="black" d="M348.13,-222.43C366.97,-210.71 389.46,-196.73 409.25,-184.43"/>
<polygon fill="black" stroke="black" points="411.19,-187.35 417.83,-179.09 407.49,-181.4 411.19,-187.35"/>
</g>
<!-- attention_params -->
<g id="node5" class="node">
<title>attention_params</title>
<path fill="#ffcccc" stroke="black" d="M648.5,-84C648.5,-84 503.5,-84 503.5,-84 497.5,-84 491.5,-78 491.5,-72 491.5,-72 491.5,-28 491.5,-28 491.5,-22 497.5,-16 503.5,-16 503.5,-16 648.5,-16 648.5,-16 654.5,-16 660.5,-22 660.5,-28 660.5,-28 660.5,-72 660.5,-72 660.5,-78 654.5,-84 648.5,-84"/>
<text text-anchor="middle" x="576" y="-68.8" font-family="Arial" font-size="14.00">Multi&#45;Head Attention</text>
<text text-anchor="middle" x="576" y="-53.8" font-family="Arial" font-size="14.00">Q, K, V projections: 786K</text>
<text text-anchor="middle" x="576" y="-38.8" font-family="Arial" font-size="14.00">Output projection: 262K</text>
<text text-anchor="middle" x="576" y="-23.8" font-family="Arial" font-size="14.00">Total: 1,048K</text>
</g>
<!-- transformers&#45;&gt;attention_params -->
<g id="edge4" class="edge">
<title>transformers&#45;&gt;attention_params</title>
<path fill="none" stroke="black" d="M380.12,-127.9C383.1,-127.21 386.07,-126.57 389,-126 430.15,-117.95 443.68,-132.56 483,-118 500.16,-111.65 516.99,-101.21 531.52,-90.45"/>
<polygon fill="black" stroke="black" points="533.98,-92.97 539.79,-84.1 529.72,-87.41 533.98,-92.97"/>
</g>
<!-- memory_params -->
<g id="node6" class="node">
<title>memory_params</title>
<path fill="#ccffcc" stroke="black" d="M461.5,-84C461.5,-84 334.5,-84 334.5,-84 328.5,-84 322.5,-78 322.5,-72 322.5,-72 322.5,-28 322.5,-28 322.5,-22 328.5,-16 334.5,-16 334.5,-16 461.5,-16 461.5,-16 467.5,-16 473.5,-22 473.5,-28 473.5,-28 473.5,-72 473.5,-72 473.5,-78 467.5,-84 461.5,-84"/>
<text text-anchor="middle" x="398" y="-68.8" font-family="Arial" font-size="14.00">Memory Compression</text>
<text text-anchor="middle" x="398" y="-53.8" font-family="Arial" font-size="14.00">Conv1D: 1,049K</text>
<text text-anchor="middle" x="398" y="-38.8" font-family="Arial" font-size="14.00">Layer norm: 0.5K</text>
<text text-anchor="middle" x="398" y="-23.8" font-family="Arial" font-size="14.00">Total: 1,049K</text>
</g>
<!-- transformers&#45;&gt;memory_params -->
<g id="edge5" class="edge">
<title>transformers&#45;&gt;memory_params</title>
<path fill="none" stroke="black" d="M330.2,-125.88C339.62,-115.48 350.73,-103.21 361.2,-91.65"/>
<polygon fill="black" stroke="black" points="363.84,-93.94 367.96,-84.17 358.66,-89.24 363.84,-93.94"/>
</g>
<!-- ffn_params -->
<g id="node7" class="node">
<title>ffn_params</title>
<path fill="#ccccff" stroke="black" d="M292.5,-84C292.5,-84 141.5,-84 141.5,-84 135.5,-84 129.5,-78 129.5,-72 129.5,-72 129.5,-28 129.5,-28 129.5,-22 135.5,-16 141.5,-16 141.5,-16 292.5,-16 292.5,-16 298.5,-16 304.5,-22 304.5,-28 304.5,-28 304.5,-72 304.5,-72 304.5,-78 298.5,-84 292.5,-84"/>
<text text-anchor="middle" x="217" y="-68.8" font-family="Arial" font-size="14.00">Feed&#45;Forward Network</text>
<text text-anchor="middle" x="217" y="-53.8" font-family="Arial" font-size="14.00">Linear 512→2048: 1,049K</text>
<text text-anchor="middle" x="217" y="-38.8" font-family="Arial" font-size="14.00">Linear 2048→512: 1,049K</text>
<text text-anchor="middle" x="217" y="-23.8" font-family="Arial" font-size="14.00">Total: 2,098K</text>
</g>
<!-- transformers&#45;&gt;ffn_params -->
<g id="edge6" class="edge">
<title>transformers&#45;&gt;ffn_params</title>
<path fill="none" stroke="black" d="M284.06,-125.88C274.74,-115.48 263.76,-103.21 253.4,-91.65"/>
<polygon fill="black" stroke="black" points="255.99,-89.29 246.71,-84.17 250.77,-93.96 255.99,-89.29"/>
</g>
<!-- norms_params -->
<g id="node8" class="node">
<title>norms_params</title>
<path fill="#ffffcc" stroke="black" d="M99.5,-69C99.5,-69 28.5,-69 28.5,-69 22.5,-69 16.5,-63 16.5,-57 16.5,-57 16.5,-43 16.5,-43 16.5,-37 22.5,-31 28.5,-31 28.5,-31 99.5,-31 99.5,-31 105.5,-31 111.5,-37 111.5,-43 111.5,-43 111.5,-57 111.5,-57 111.5,-63 105.5,-69 99.5,-69"/>
<text text-anchor="middle" x="64" y="-53.8" font-family="Arial" font-size="14.00">Layer Norms</text>
<text text-anchor="middle" x="64" y="-38.8" font-family="Arial" font-size="14.00">2 × 512 = 1K</text>
</g>
<!-- transformers&#45;&gt;norms_params -->
<g id="edge7" class="edge">
<title>transformers&#45;&gt;norms_params</title>
<path fill="none" stroke="black" d="M233.89,-127.87C230.9,-127.19 227.93,-126.56 225,-126 202.23,-121.64 141.65,-128.52 121,-118 103.53,-109.1 89.25,-92.28 79.35,-77.72"/>
<polygon fill="black" stroke="black" points="82.12,-75.55 73.77,-69.04 76.24,-79.34 82.12,-75.55"/>
</g>
<!-- memory_note -->
<g id="node9" class="node">
<title>memory_note</title>
<polygon fill="#ffffdd" stroke="black" points="514,-283 392,-283 392,-215 520,-215 520,-277 514,-283"/>
<polyline fill="none" stroke="black" points="514,-283 514,-277 "/>
<polyline fill="none" stroke="black" points="520,-277 514,-277 "/>
<text text-anchor="middle" x="456" y="-267.8" font-family="Arial" font-size="14.00">Memory Footprint:</text>
<text text-anchor="middle" x="456" y="-252.8" font-family="Arial" font-size="14.00">FP32: 59.9 MB</text>
<text text-anchor="middle" x="456" y="-237.8" font-family="Arial" font-size="14.00">FP16: 29.9 MB</text>
<text text-anchor="middle" x="456" y="-222.8" font-family="Arial" font-size="14.00">FP8: 14.9 MB</text>
</g>
</g>
</svg>
