<?xml version="1.0" encoding="UTF-8" standalone="no"?>
<!DOCTYPE svg PUBLIC "-//W3C//DTD SVG 1.1//EN"
 "http://www.w3.org/Graphics/SVG/1.1/DTD/svg11.dtd">
<!-- Generated by graphviz version 2.43.0 (0)
 -->
<!-- Title: compression_pipeline Pages: 1 -->
<svg width="284pt" height="636pt"
 viewBox="0.00 0.00 284.00 636.00" xmlns="http://www.w3.org/2000/svg" xmlns:xlink="http://www.w3.org/1999/xlink">
<g id="graph0" class="graph" transform="scale(1 1) rotate(0) translate(4 632)">
<title>compression_pipeline</title>
<polygon fill="white" stroke="transparent" points="-4,4 -4,-632 280,-632 280,4 -4,4"/>
<text text-anchor="middle" x="138" y="-611.2" font-family="Arial" font-size="16.00">Vortex&#45;Codec Compression Pipeline</text>
<!-- input -->
<g id="node1" class="node">
<title>input</title>
<path fill="#e1f5ff" stroke="black" d="M186.5,-602C186.5,-602 89.5,-602 89.5,-602 83.5,-602 77.5,-596 77.5,-590 77.5,-590 77.5,-561 77.5,-561 77.5,-555 83.5,-549 89.5,-549 89.5,-549 186.5,-549 186.5,-549 192.5,-549 198.5,-555 198.5,-561 198.5,-561 198.5,-590 198.5,-590 198.5,-596 192.5,-602 186.5,-602"/>
<text text-anchor="middle" x="138" y="-586.8" font-family="Arial" font-size="14.00">Input Binary Data</text>
<text text-anchor="middle" x="138" y="-571.8" font-family="Arial" font-size="14.00">ATLAS Detector</text>
<text text-anchor="middle" x="138" y="-556.8" font-family="Arial" font-size="14.00">Scientific Format</text>
</g>
<!-- window -->
<g id="node2" class="node">
<title>window</title>
<path fill="#d0e8ff" stroke="black" d="M184,-513C184,-513 92,-513 92,-513 86,-513 80,-507 80,-501 80,-501 80,-472 80,-472 80,-466 86,-460 92,-460 92,-460 184,-460 184,-460 190,-460 196,-466 196,-472 196,-472 196,-501 196,-501 196,-507 190,-513 184,-513"/>
<text text-anchor="middle" x="138" y="-497.8" font-family="Arial" font-size="14.00">Sliding Windows</text>
<text text-anchor="middle" x="138" y="-482.8" font-family="Arial" font-size="14.00">512 bytes</text>
<text text-anchor="middle" x="138" y="-467.8" font-family="Arial" font-size="14.00">Stride 256</text>
</g>
<!-- input&#45;&gt;window -->
<g id="edge1" class="edge">
<title>input&#45;&gt;window</title>
<path fill="none" stroke="black" d="M138,-548.87C138,-540.89 138,-531.93 138,-523.38"/>
<polygon fill="black" stroke="black" points="141.5,-523.25 138,-513.25 134.5,-523.25 141.5,-523.25"/>
</g>
<!-- transformer -->
<g id="node3" class="node">
<title>transformer</title>
<path fill="#ffe1e1" stroke="black" d="M213,-424C213,-424 63,-424 63,-424 57,-424 51,-418 51,-412 51,-412 51,-383 51,-383 51,-377 57,-371 63,-371 63,-371 213,-371 213,-371 219,-371 225,-377 225,-383 225,-383 225,-412 225,-412 225,-418 219,-424 213,-424"/>
<text text-anchor="middle" x="138" y="-408.8" font-family="Arial" font-size="14.00">Compressive Transformer</text>
<text text-anchor="middle" x="138" y="-393.8" font-family="Arial" font-size="14.00">8 Layers, d=512</text>
<text text-anchor="middle" x="138" y="-378.8" font-family="Arial" font-size="14.00">14.8M Parameters</text>
</g>
<!-- window&#45;&gt;transformer -->
<g id="edge2" class="edge">
<title>window&#45;&gt;transformer</title>
<path fill="none" stroke="black" d="M138,-459.87C138,-451.89 138,-442.93 138,-434.38"/>
<polygon fill="black" stroke="black" points="141.5,-434.25 138,-424.25 134.5,-434.25 141.5,-434.25"/>
</g>
<!-- prob -->
<g id="node4" class="node">
<title>prob</title>
<path fill="#ffd0d0" stroke="black" d="M201.5,-335C201.5,-335 74.5,-335 74.5,-335 68.5,-335 62.5,-329 62.5,-323 62.5,-323 62.5,-294 62.5,-294 62.5,-288 68.5,-282 74.5,-282 74.5,-282 201.5,-282 201.5,-282 207.5,-282 213.5,-288 213.5,-294 213.5,-294 213.5,-323 213.5,-323 213.5,-329 207.5,-335 201.5,-335"/>
<text text-anchor="middle" x="138" y="-319.8" font-family="Arial" font-size="14.00">Probability Distribution</text>
<text text-anchor="middle" x="138" y="-304.8" font-family="Arial" font-size="14.00">p(x_t | x_{&lt;t})</text>
<text text-anchor="middle" x="138" y="-289.8" font-family="Arial" font-size="14.00">256 values</text>
</g>
<!-- transformer&#45;&gt;prob -->
<g id="edge3" class="edge">
<title>transformer&#45;&gt;prob</title>
<path fill="none" stroke="black" d="M138,-370.87C138,-362.89 138,-353.93 138,-345.38"/>
<polygon fill="black" stroke="black" points="141.5,-345.25 138,-335.25 134.5,-345.25 141.5,-345.25"/>
</g>
<!-- cdf -->
<g id="node5" class="node">
<title>cdf</title>
<path fill="#ffc0c0" stroke="black" d="M204,-246C204,-246 72,-246 72,-246 66,-246 60,-240 60,-234 60,-234 60,-205 60,-205 60,-199 66,-193 72,-193 72,-193 204,-193 204,-193 210,-193 216,-199 216,-205 216,-205 216,-234 216,-234 216,-240 210,-246 204,-246"/>
<text text-anchor="middle" x="138" y="-230.8" font-family="Arial" font-size="14.00">Convert to CDF</text>
<text text-anchor="middle" x="138" y="-215.8" font-family="Arial" font-size="14.00">Cumulative Distribution</text>
<text text-anchor="middle" x="138" y="-200.8" font-family="Arial" font-size="14.00">256 values</text>
</g>
<!-- prob&#45;&gt;cdf -->
<g id="edge4" class="edge">
<title>prob&#45;&gt;cdf</title>
<path fill="none" stroke="black" d="M138,-281.87C138,-273.89 138,-264.93 138,-256.38"/>
<polygon fill="black" stroke="black" points="141.5,-256.25 138,-246.25 134.5,-256.25 141.5,-256.25"/>
</g>
<!-- arithmetic -->
<g id="node6" class="node">
<title>arithmetic</title>
<path fill="#ffb0b0" stroke="black" d="M188,-157C188,-157 88,-157 88,-157 82,-157 76,-151 76,-145 76,-145 76,-116 76,-116 76,-110 82,-104 88,-104 88,-104 188,-104 188,-104 194,-104 200,-110 200,-116 200,-116 200,-145 200,-145 200,-151 194,-157 188,-157"/>
<text text-anchor="middle" x="138" y="-141.8" font-family="Arial" font-size="14.00">Arithmetic Coding</text>
<text text-anchor="middle" x="138" y="-126.8" font-family="Arial" font-size="14.00">torchac library</text>
<text text-anchor="middle" x="138" y="-111.8" font-family="Arial" font-size="14.00">Entropy encoding</text>
</g>
<!-- cdf&#45;&gt;arithmetic -->
<g id="edge5" class="edge">
<title>cdf&#45;&gt;arithmetic</title>
<path fill="none" stroke="black" d="M138,-192.87C138,-184.89 138,-175.93 138,-167.38"/>
<polygon fill="black" stroke="black" points="141.5,-167.25 138,-157.25 134.5,-167.25 141.5,-167.25"/>
</g>
<!-- output -->
<g id="node7" class="node">
<title>output</title>
<path fill="#e1ffe1" stroke="black" d="M203.5,-68C203.5,-68 72.5,-68 72.5,-68 66.5,-68 60.5,-62 60.5,-56 60.5,-56 60.5,-12 60.5,-12 60.5,-6 66.5,0 72.5,0 72.5,0 203.5,0 203.5,0 209.5,0 215.5,-6 215.5,-12 215.5,-12 215.5,-56 215.5,-56 215.5,-62 209.5,-68 203.5,-68"/>
<text text-anchor="middle" x="138" y="-52.8" font-family="Arial" font-size="14.00">Compressed Bitstream</text>
<text text-anchor="middle" x="138" y="-37.8" font-family="Arial" font-size="14.00">3.04 BPD</text>
<text text-anchor="middle" x="138" y="-22.8" font-family="Arial" font-size="14.00">38% of original size</text>
<text text-anchor="middle" x="138" y="-7.8" font-family="Arial" font-size="14.00">39% better than Gzip</text>
</g>
<!-- arithmetic&#45;&gt;output -->
<g id="edge6" class="edge">
<title>arithmetic&#45;&gt;output</title>
<path fill="none" stroke="black" d="M138,-103.68C138,-95.82 138,-86.96 138,-78.29"/>
<polygon fill="black" stroke="black" points="141.5,-78.25 138,-68.25 134.5,-78.25 141.5,-78.25"/>
</g>
</g>
</svg>
