<?xml version="1.0" encoding="UTF-8" standalone="no"?>
<!DOCTYPE svg PUBLIC "-//W3C//DTD SVG 1.1//EN"
 "http://www.w3.org/Graphics/SVG/1.1/DTD/svg11.dtd">
<!-- Generated by graphviz version 2.43.0 (0)
 -->
<!-- Title: ablation Pages: 1 -->
<svg width="944pt" height="339pt"
 viewBox="0.00 0.00 943.50 339.00" xmlns="http://www.w3.org/2000/svg" xmlns:xlink="http://www.w3.org/1999/xlink">
<g id="graph0" class="graph" transform="scale(1 1) rotate(0) translate(4 335)">
<title>ablation</title>
<polygon fill="white" stroke="transparent" points="-4,4 -4,-335 939.5,-335 939.5,4 -4,4"/>
<text text-anchor="middle" x="467.75" y="-314.2" font-family="Arial" font-size="16.00">Ablation Study: Component Importance</text>
<!-- full_model -->
<g id="node1" class="node">
<title>full_model</title>
<path fill="#90ee90" stroke="black" stroke-width="3" d="M517,-297.5C517,-297.5 437,-297.5 437,-297.5 431,-297.5 425,-291.5 425,-285.5 425,-285.5 425,-241.5 425,-241.5 425,-235.5 431,-229.5 437,-229.5 437,-229.5 517,-229.5 517,-229.5 523,-229.5 529,-235.5 529,-241.5 529,-241.5 529,-285.5 529,-285.5 529,-291.5 523,-297.5 517,-297.5"/>
<text text-anchor="middle" x="477" y="-282.3" font-family="Arial" font-size="14.00">Full Model</text>
<text text-anchor="middle" x="477" y="-267.3" font-family="Arial" font-size="14.00">3.042 BPD</text>
<text text-anchor="middle" x="477" y="-252.3" font-family="Arial" font-size="14.00">14.8M params</text>
<text text-anchor="middle" x="477" y="-237.3" font-family="Arial" font-size="14.00">★ Baseline ★</text>
</g>
<!-- question -->
<g id="node2" class="node">
<title>question</title>
<path fill="#ffffee" stroke="black" d="M465.1,-183.44C465.1,-183.44 351.99,-168.56 351.99,-168.56 346.04,-167.78 346.04,-166.22 351.99,-165.44 351.99,-165.44 465.1,-150.56 465.1,-150.56 471.05,-149.78 482.95,-149.78 488.9,-150.56 488.9,-150.56 602.01,-165.44 602.01,-165.44 607.96,-166.22 607.96,-167.78 602.01,-168.56 602.01,-168.56 488.9,-183.44 488.9,-183.44 482.95,-184.22 471.05,-184.22 465.1,-183.44"/>
<text text-anchor="middle" x="477" y="-163.3" font-family="Arial" font-size="14.00">Remove Component?</text>
</g>
<!-- full_model&#45;&gt;question -->
<g id="edge1" class="edge">
<title>full_model&#45;&gt;question</title>
<path fill="none" stroke="black" d="M477,-229.45C477,-218.27 477,-205.93 477,-195.25"/>
<polygon fill="black" stroke="black" points="480.5,-195.24 477,-185.24 473.5,-195.24 480.5,-195.24"/>
</g>
<!-- no_compression -->
<g id="node3" class="node">
<title>no_compression</title>
<path fill="#ffffcc" stroke="black" d="M146,-75.5C146,-75.5 12,-75.5 12,-75.5 6,-75.5 0,-69.5 0,-63.5 0,-63.5 0,-19.5 0,-19.5 0,-13.5 6,-7.5 12,-7.5 12,-7.5 146,-7.5 146,-7.5 152,-7.5 158,-13.5 158,-19.5 158,-19.5 158,-63.5 158,-63.5 158,-69.5 152,-75.5 146,-75.5"/>
<text text-anchor="middle" x="79" y="-60.3" font-family="Arial" font-size="14.00">No Compression</text>
<text text-anchor="middle" x="79" y="-45.3" font-family="Arial" font-size="14.00">(Standard Transformer)</text>
<text text-anchor="middle" x="79" y="-30.3" font-family="Arial" font-size="14.00">3.189 BPD (+0.147)</text>
<text text-anchor="middle" x="79" y="-15.3" font-family="Arial" font-size="14.00">5% degradation</text>
</g>
<!-- question&#45;&gt;no_compression -->
<g id="edge2" class="edge">
<title>question&#45;&gt;no_compression</title>
<path fill="none" stroke="black" d="M384.97,-161.06C338.43,-156.51 281.65,-147.77 233,-131 198.26,-119.02 162.49,-99.02 134.18,-81.05"/>
<polygon fill="black" stroke="black" points="135.94,-78.03 125.64,-75.56 132.15,-83.91 135.94,-78.03"/>
<text text-anchor="middle" x="278.5" y="-119.8" font-family="Times,serif" font-size="14.00">Remove</text>
<text text-anchor="middle" x="278.5" y="-104.8" font-family="Times,serif" font-size="14.00">compression</text>
</g>
<!-- no_memory -->
<g id="node4" class="node">
<title>no_memory</title>
<path fill="#ffb6c1" stroke="black" stroke-width="2" d="M301.5,-83C301.5,-83 188.5,-83 188.5,-83 182.5,-83 176.5,-77 176.5,-71 176.5,-71 176.5,-12 176.5,-12 176.5,-6 182.5,0 188.5,0 188.5,0 301.5,0 301.5,0 307.5,0 313.5,-6 313.5,-12 313.5,-12 313.5,-71 313.5,-71 313.5,-77 307.5,-83 301.5,-83"/>
<text text-anchor="middle" x="245" y="-67.8" font-family="Arial" font-size="14.00">No Memory</text>
<text text-anchor="middle" x="245" y="-52.8" font-family="Arial" font-size="14.00">(Fixed context only)</text>
<text text-anchor="middle" x="245" y="-37.8" font-family="Arial" font-size="14.00">3.584 BPD (+0.542)</text>
<text text-anchor="middle" x="245" y="-22.8" font-family="Arial" font-size="14.00">18% degradation</text>
<text text-anchor="middle" x="245" y="-7.8" font-family="Arial" font-size="14.00">★ Worst ★</text>
</g>
<!-- question&#45;&gt;no_memory -->
<g id="edge3" class="edge">
<title>question&#45;&gt;no_memory</title>
<path fill="none" stroke="black" d="M435.71,-154.38C417.02,-148.44 394.92,-140.47 376,-131 352.27,-119.13 327.78,-103.6 306.49,-88.88"/>
<polygon fill="black" stroke="black" points="308.39,-85.93 298.19,-83.07 304.38,-91.67 308.39,-85.93"/>
<text text-anchor="middle" x="405.5" y="-119.8" font-family="Times,serif" font-size="14.00">Remove</text>
<text text-anchor="middle" x="405.5" y="-104.8" font-family="Times,serif" font-size="14.00">memory</text>
</g>
<!-- four_layers -->
<g id="node5" class="node">
<title>four_layers</title>
<path fill="#ffffcc" stroke="black" d="M456.5,-83C456.5,-83 343.5,-83 343.5,-83 337.5,-83 331.5,-77 331.5,-71 331.5,-71 331.5,-12 331.5,-12 331.5,-6 337.5,0 343.5,0 343.5,0 456.5,0 456.5,0 462.5,0 468.5,-6 468.5,-12 468.5,-12 468.5,-71 468.5,-71 468.5,-77 462.5,-83 456.5,-83"/>
<text text-anchor="middle" x="400" y="-67.8" font-family="Arial" font-size="14.00">4 Layers</text>
<text text-anchor="middle" x="400" y="-52.8" font-family="Arial" font-size="14.00">(Shallow network)</text>
<text text-anchor="middle" x="400" y="-37.8" font-family="Arial" font-size="14.00">3.267 BPD (+0.225)</text>
<text text-anchor="middle" x="400" y="-22.8" font-family="Arial" font-size="14.00">7.4% degradation</text>
<text text-anchor="middle" x="400" y="-7.8" font-family="Arial" font-size="14.00">7.8M params</text>
</g>
<!-- question&#45;&gt;four_layers -->
<g id="edge4" class="edge">
<title>question&#45;&gt;four_layers</title>
<path fill="none" stroke="black" d="M467.09,-150.11C457.92,-135.4 443.8,-112.74 430.87,-92"/>
<polygon fill="black" stroke="black" points="433.68,-89.9 425.42,-83.26 427.74,-93.6 433.68,-89.9"/>
<text text-anchor="middle" x="491" y="-119.8" font-family="Times,serif" font-size="14.00">Reduce to</text>
<text text-anchor="middle" x="491" y="-104.8" font-family="Times,serif" font-size="14.00">4 layers</text>
</g>
<!-- four_heads -->
<g id="node6" class="node">
<title>four_heads</title>
<path fill="#ffffee" stroke="black" d="M611.5,-83C611.5,-83 498.5,-83 498.5,-83 492.5,-83 486.5,-77 486.5,-71 486.5,-71 486.5,-12 486.5,-12 486.5,-6 492.5,0 498.5,0 498.5,0 611.5,0 611.5,0 617.5,0 623.5,-6 623.5,-12 623.5,-12 623.5,-71 623.5,-71 623.5,-77 617.5,-83 611.5,-83"/>
<text text-anchor="middle" x="555" y="-67.8" font-family="Arial" font-size="14.00">4 Heads</text>
<text text-anchor="middle" x="555" y="-52.8" font-family="Arial" font-size="14.00">(Reduced attention)</text>
<text text-anchor="middle" x="555" y="-37.8" font-family="Arial" font-size="14.00">3.178 BPD (+0.136)</text>
<text text-anchor="middle" x="555" y="-22.8" font-family="Arial" font-size="14.00">4.5% degradation</text>
<text text-anchor="middle" x="555" y="-7.8" font-family="Arial" font-size="14.00">13.9M params</text>
</g>
<!-- question&#45;&gt;four_heads -->
<g id="edge5" class="edge">
<title>question&#45;&gt;four_heads</title>
<path fill="none" stroke="black" d="M505.66,-152.74C514.93,-147.19 524.48,-139.94 531,-131 539.07,-119.93 544.43,-106.3 547.99,-93.09"/>
<polygon fill="black" stroke="black" points="551.45,-93.65 550.37,-83.11 544.64,-92.02 551.45,-93.65"/>
<text text-anchor="middle" x="582" y="-119.8" font-family="Times,serif" font-size="14.00">Reduce to</text>
<text text-anchor="middle" x="582" y="-104.8" font-family="Times,serif" font-size="14.00">4 heads</text>
</g>
<!-- d256 -->
<g id="node7" class="node">
<title>d256</title>
<path fill="#ffe1cc" stroke="black" d="M768,-83C768,-83 654,-83 654,-83 648,-83 642,-77 642,-71 642,-71 642,-12 642,-12 642,-6 648,0 654,0 654,0 768,0 768,0 774,0 780,-6 780,-12 780,-12 780,-71 780,-71 780,-77 774,-83 768,-83"/>
<text text-anchor="middle" x="711" y="-67.8" font-family="Arial" font-size="14.00">d_model=256</text>
<text text-anchor="middle" x="711" y="-52.8" font-family="Arial" font-size="14.00">(Smaller dimension)</text>
<text text-anchor="middle" x="711" y="-37.8" font-family="Arial" font-size="14.00">3.412 BPD (+0.370)</text>
<text text-anchor="middle" x="711" y="-22.8" font-family="Arial" font-size="14.00">12% degradation</text>
<text text-anchor="middle" x="711" y="-7.8" font-family="Arial" font-size="14.00">4.2M params</text>
</g>
<!-- question&#45;&gt;d256 -->
<g id="edge6" class="edge">
<title>question&#45;&gt;d256</title>
<path fill="none" stroke="black" d="M543.69,-157.76C569.33,-152.62 598.15,-144.33 622,-131 640.3,-120.77 657.42,-105.73 671.66,-90.93"/>
<polygon fill="black" stroke="black" points="674.57,-92.94 678.83,-83.25 669.45,-88.17 674.57,-92.94"/>
<text text-anchor="middle" x="691" y="-119.8" font-family="Times,serif" font-size="14.00">Reduce</text>
<text text-anchor="middle" x="691" y="-104.8" font-family="Times,serif" font-size="14.00">d_model</text>
</g>
<!-- window256 -->
<g id="node8" class="node">
<title>window256</title>
<path fill="#ffffee" stroke="black" d="M923.5,-83C923.5,-83 810.5,-83 810.5,-83 804.5,-83 798.5,-77 798.5,-71 798.5,-71 798.5,-12 798.5,-12 798.5,-6 804.5,0 810.5,0 810.5,0 923.5,0 923.5,0 929.5,0 935.5,-6 935.5,-12 935.5,-12 935.5,-71 935.5,-71 935.5,-77 929.5,-83 923.5,-83"/>
<text text-anchor="middle" x="867" y="-67.8" font-family="Arial" font-size="14.00">Window=256</text>
<text text-anchor="middle" x="867" y="-52.8" font-family="Arial" font-size="14.00">(Smaller context)</text>
<text text-anchor="middle" x="867" y="-37.8" font-family="Arial" font-size="14.00">3.198 BPD (+0.156)</text>
<text text-anchor="middle" x="867" y="-22.8" font-family="Arial" font-size="14.00">5.1% degradation</text>
<text text-anchor="middle" x="867" y="-7.8" font-family="Arial" font-size="14.00">14.8M params</text>
</g>
<!-- question&#45;&gt;window256 -->
<g id="edge7" class="edge">
<title>question&#45;&gt;window256</title>
<path fill="none" stroke="black" d="M573.76,-161.71C620.56,-157.3 676.88,-148.5 725,-131 752.96,-120.83 781.28,-104.63 805.19,-88.86"/>
<polygon fill="black" stroke="black" points="807.45,-91.56 813.79,-83.08 803.54,-85.75 807.45,-91.56"/>
<text text-anchor="middle" x="810.5" y="-119.8" font-family="Times,serif" font-size="14.00">Reduce</text>
<text text-anchor="middle" x="810.5" y="-104.8" font-family="Times,serif" font-size="14.00">window</text>
</g>
<!-- conclusions -->
<g id="node9" class="node">
<title>conclusions</title>
<polygon fill="#e1ffe1" stroke="black" points="816.5,-305 547.5,-305 547.5,-222 822.5,-222 822.5,-299 816.5,-305"/>
<polyline fill="none" stroke="black" points="816.5,-305 816.5,-299 "/>
<polyline fill="none" stroke="black" points="822.5,-299 816.5,-299 "/>
<text text-anchor="middle" x="685" y="-289.8" font-family="Arial" font-size="14.00">Key Findings:</text>
<text text-anchor="middle" x="685" y="-274.8" font-family="Arial" font-size="14.00">• Long&#45;range memory critical (18% impact)</text>
<text text-anchor="middle" x="685" y="-259.8" font-family="Arial" font-size="14.00">• Compression mechanism important (5%)</text>
<text text-anchor="middle" x="685" y="-244.8" font-family="Arial" font-size="14.00">• All components contribute</text>
<text text-anchor="middle" x="685" y="-229.8" font-family="Arial" font-size="14.00">• Architecture well&#45;tuned</text>
</g>
</g>
</svg>
