<?xml version="1.0" encoding="UTF-8" standalone="no"?>
<!DOCTYPE svg PUBLIC "-//W3C//DTD SVG 1.1//EN"
 "http://www.w3.org/Graphics/SVG/1.1/DTD/svg11.dtd">
<!-- Generated by graphviz version 2.43.0 (0)
 -->
<!-- Title: performance Pages: 1 -->
<svg width="411pt" height="876pt"
 viewBox="0.00 0.00 411.00 876.00" xmlns="http://www.w3.org/2000/svg" xmlns:xlink="http://www.w3.org/1999/xlink">
<g id="graph0" class="graph" transform="scale(1 1) rotate(0) translate(4 872)">
<title>performance</title>
<polygon fill="white" stroke="transparent" points="-4,4 -4,-872 407,-872 407,4 -4,4"/>
<text text-anchor="middle" x="201.5" y="-851.2" font-family="Arial" font-size="16.00">Performance Comparison: Vortex&#45;Codec vs Baselines</text>
<g id="clust1" class="cluster">
<title>cluster_metrics</title>
<polygon fill="#f5f5f5" stroke="black" points="49.5,-8 49.5,-690 353.5,-690 353.5,-8 49.5,-8"/>
<text text-anchor="middle" x="201.5" y="-673.2" font-family="Arial" font-size="16.00">Evaluation Metrics on ATLAS Data</text>
</g>
<g id="clust2" class="cluster">
<title>cluster_bpd</title>
<polygon fill="#ffffff" stroke="black" points="85.5,-448 85.5,-656 317.5,-656 317.5,-448 85.5,-448"/>
<text text-anchor="middle" x="201.5" y="-639.2" font-family="Arial" font-size="16.00">Bits Per Byte (Lower is Better)</text>
</g>
<g id="clust3" class="cluster">
<title>cluster_ratio</title>
<polygon fill="#ffffff" stroke="black" points="57.5,-232 57.5,-440 345.5,-440 345.5,-232 57.5,-232"/>
<text text-anchor="middle" x="201.5" y="-423.2" font-family="Arial" font-size="16.00">Compression Factor (Higher is Better)</text>
</g>
<g id="clust4" class="cluster">
<title>cluster_speed</title>
<polygon fill="#ffffff" stroke="black" points="68.5,-16 68.5,-224 334.5,-224 334.5,-16 68.5,-16"/>
<text text-anchor="middle" x="201.5" y="-207.2" font-family="Arial" font-size="16.00">Throughput MB/s (Higher is Better)</text>
</g>
<!-- gzip_bpd -->
<g id="node1" class="node">
<title>gzip_bpd</title>
<path fill="#ffcccc" stroke="black" d="M226.5,-622C226.5,-622 176.5,-622 176.5,-622 170.5,-622 164.5,-616 164.5,-610 164.5,-610 164.5,-596 164.5,-596 164.5,-590 170.5,-584 176.5,-584 176.5,-584 226.5,-584 226.5,-584 232.5,-584 238.5,-590 238.5,-596 238.5,-596 238.5,-610 238.5,-610 238.5,-616 232.5,-622 226.5,-622"/>
<text text-anchor="middle" x="201.5" y="-606.8" font-family="Arial" font-size="14.00">Gzip</text>
<text text-anchor="middle" x="201.5" y="-591.8" font-family="Arial" font-size="14.00">5.02 BPD</text>
</g>
<!-- zstd_bpd -->
<g id="node2" class="node">
<title>zstd_bpd</title>
<path fill="#ffcccc" stroke="black" d="M226.5,-566C226.5,-566 176.5,-566 176.5,-566 170.5,-566 164.5,-560 164.5,-554 164.5,-554 164.5,-540 164.5,-540 164.5,-534 170.5,-528 176.5,-528 176.5,-528 226.5,-528 226.5,-528 232.5,-528 238.5,-534 238.5,-540 238.5,-540 238.5,-554 238.5,-554 238.5,-560 232.5,-566 226.5,-566"/>
<text text-anchor="middle" x="201.5" y="-550.8" font-family="Arial" font-size="14.00">Zstd</text>
<text text-anchor="middle" x="201.5" y="-535.8" font-family="Arial" font-size="14.00">4.98 BPD</text>
</g>
<!-- vortex_bpd -->
<g id="node3" class="node">
<title>vortex_bpd</title>
<path fill="#90ee90" stroke="black" stroke-width="3" d="M247.5,-509.5C247.5,-509.5 155.5,-509.5 155.5,-509.5 149.5,-509.5 143.5,-503.5 143.5,-497.5 143.5,-497.5 143.5,-468.5 143.5,-468.5 143.5,-462.5 149.5,-456.5 155.5,-456.5 155.5,-456.5 247.5,-456.5 247.5,-456.5 253.5,-456.5 259.5,-462.5 259.5,-468.5 259.5,-468.5 259.5,-497.5 259.5,-497.5 259.5,-503.5 253.5,-509.5 247.5,-509.5"/>
<text text-anchor="middle" x="201.5" y="-494.3" font-family="Arial" font-size="14.00">Vortex</text>
<text text-anchor="middle" x="201.5" y="-479.3" font-family="Arial" font-size="14.00">3.04 BPD</text>
<text text-anchor="middle" x="201.5" y="-464.3" font-family="Arial" font-size="14.00">★ 39% better ★</text>
</g>
<!-- gzip_ratio -->
<g id="node4" class="node">
<title>gzip_ratio</title>
<path fill="#ffcccc" stroke="black" d="M216.5,-406C216.5,-406 186.5,-406 186.5,-406 180.5,-406 174.5,-400 174.5,-394 174.5,-394 174.5,-380 174.5,-380 174.5,-374 180.5,-368 186.5,-368 186.5,-368 216.5,-368 216.5,-368 222.5,-368 228.5,-374 228.5,-380 228.5,-380 228.5,-394 228.5,-394 228.5,-400 222.5,-406 216.5,-406"/>
<text text-anchor="middle" x="201.5" y="-390.8" font-family="Arial" font-size="14.00">Gzip</text>
<text text-anchor="middle" x="201.5" y="-375.8" font-family="Arial" font-size="14.00">1.59×</text>
</g>
<!-- zstd_ratio -->
<g id="node5" class="node">
<title>zstd_ratio</title>
<path fill="#ffcccc" stroke="black" d="M216.5,-350C216.5,-350 186.5,-350 186.5,-350 180.5,-350 174.5,-344 174.5,-338 174.5,-338 174.5,-324 174.5,-324 174.5,-318 180.5,-312 186.5,-312 186.5,-312 216.5,-312 216.5,-312 222.5,-312 228.5,-318 228.5,-324 228.5,-324 228.5,-338 228.5,-338 228.5,-344 222.5,-350 216.5,-350"/>
<text text-anchor="middle" x="201.5" y="-334.8" font-family="Arial" font-size="14.00">Zstd</text>
<text text-anchor="middle" x="201.5" y="-319.8" font-family="Arial" font-size="14.00">1.61×</text>
</g>
<!-- vortex_ratio -->
<g id="node6" class="node">
<title>vortex_ratio</title>
<path fill="#90ee90" stroke="black" stroke-width="3" d="M247.5,-293.5C247.5,-293.5 155.5,-293.5 155.5,-293.5 149.5,-293.5 143.5,-287.5 143.5,-281.5 143.5,-281.5 143.5,-252.5 143.5,-252.5 143.5,-246.5 149.5,-240.5 155.5,-240.5 155.5,-240.5 247.5,-240.5 247.5,-240.5 253.5,-240.5 259.5,-246.5 259.5,-252.5 259.5,-252.5 259.5,-281.5 259.5,-281.5 259.5,-287.5 253.5,-293.5 247.5,-293.5"/>
<text text-anchor="middle" x="201.5" y="-278.3" font-family="Arial" font-size="14.00">Vortex</text>
<text text-anchor="middle" x="201.5" y="-263.3" font-family="Arial" font-size="14.00">2.63×</text>
<text text-anchor="middle" x="201.5" y="-248.3" font-family="Arial" font-size="14.00">★ 64% better ★</text>
</g>
<!-- gzip_speed -->
<g id="node7" class="node">
<title>gzip_speed</title>
<path fill="#90ee90" stroke="black" d="M228.5,-190C228.5,-190 174.5,-190 174.5,-190 168.5,-190 162.5,-184 162.5,-178 162.5,-178 162.5,-164 162.5,-164 162.5,-158 168.5,-152 174.5,-152 174.5,-152 228.5,-152 228.5,-152 234.5,-152 240.5,-158 240.5,-164 240.5,-164 240.5,-178 240.5,-178 240.5,-184 234.5,-190 228.5,-190"/>
<text text-anchor="middle" x="201.5" y="-174.8" font-family="Arial" font-size="14.00">Gzip</text>
<text text-anchor="middle" x="201.5" y="-159.8" font-family="Arial" font-size="14.00">61.2 MB/s</text>
</g>
<!-- zstd_speed -->
<g id="node8" class="node">
<title>zstd_speed</title>
<path fill="#90ee90" stroke="black" d="M232.5,-134C232.5,-134 170.5,-134 170.5,-134 164.5,-134 158.5,-128 158.5,-122 158.5,-122 158.5,-108 158.5,-108 158.5,-102 164.5,-96 170.5,-96 170.5,-96 232.5,-96 232.5,-96 238.5,-96 244.5,-102 244.5,-108 244.5,-108 244.5,-122 244.5,-122 244.5,-128 238.5,-134 232.5,-134"/>
<text text-anchor="middle" x="201.5" y="-118.8" font-family="Arial" font-size="14.00">Zstd</text>
<text text-anchor="middle" x="201.5" y="-103.8" font-family="Arial" font-size="14.00">364.5 MB/s</text>
</g>
<!-- vortex_speed -->
<g id="node9" class="node">
<title>vortex_speed</title>
<path fill="#ffb6c1" stroke="black" d="M232.5,-77.5C232.5,-77.5 170.5,-77.5 170.5,-77.5 164.5,-77.5 158.5,-71.5 158.5,-65.5 158.5,-65.5 158.5,-36.5 158.5,-36.5 158.5,-30.5 164.5,-24.5 170.5,-24.5 170.5,-24.5 232.5,-24.5 232.5,-24.5 238.5,-24.5 244.5,-30.5 244.5,-36.5 244.5,-36.5 244.5,-65.5 244.5,-65.5 244.5,-71.5 238.5,-77.5 232.5,-77.5"/>
<text text-anchor="middle" x="201.5" y="-62.3" font-family="Arial" font-size="14.00">Vortex</text>
<text text-anchor="middle" x="201.5" y="-47.3" font-family="Arial" font-size="14.00">0.065 MB/s</text>
<text text-anchor="middle" x="201.5" y="-32.3" font-family="Arial" font-size="14.00">(Trade&#45;off)</text>
</g>
<!-- tradeoff -->
<g id="node10" class="node">
<title>tradeoff</title>
<polygon fill="#ffffee" stroke="black" points="295,-842 102,-842 102,-698 301,-698 301,-836 295,-842"/>
<polyline fill="none" stroke="black" points="295,-842 295,-836 "/>
<polyline fill="none" stroke="black" points="301,-836 295,-836 "/>
<text text-anchor="middle" x="201.5" y="-826.8" font-family="Arial" font-size="14.00">Trade&#45;off Analysis:</text>
<text text-anchor="middle" x="201.5" y="-811.8" font-family="Arial" font-size="14.00">39% better compression</text>
<text text-anchor="middle" x="201.5" y="-796.8" font-family="Arial" font-size="14.00">900&#45;5600× slower speed</text>
<text text-anchor="middle" x="201.5" y="-765.8" font-family="Arial" font-size="14.00">Ideal for:</text>
<text text-anchor="middle" x="201.5" y="-750.8" font-family="Arial" font-size="14.00">• Archival storage</text>
<text text-anchor="middle" x="201.5" y="-735.8" font-family="Arial" font-size="14.00">• One&#45;time compression</text>
<text text-anchor="middle" x="201.5" y="-720.8" font-family="Arial" font-size="14.00">• GPU&#45;available environments</text>
<text text-anchor="middle" x="201.5" y="-705.8" font-family="Arial" font-size="14.00">• Space &gt; Time priority</text>
</g>
</g>
</svg>
